<svg height='300px' width='300px'  fill="#ec2a39" xmlns="http://www.w3.org/2000/svg" xmlns:xlink="http://www.w3.org/1999/xlink" version="1.1" x="0px" y="0px" viewBox="0 0 32 32" enable-background="new 0 0 32 32" xml:space="preserve"><path d="M15.435,28.172c-6.399,0-11.606-5.207-11.606-11.607c0-5.686,4.23-10.617,9.841-11.473l-0.188-1.227  C7.271,4.813,2.588,10.273,2.588,16.564c0,7.084,5.763,12.848,12.847,12.848c6.291,0,11.75-4.684,12.699-10.893l-1.227-0.188  C26.051,23.941,21.118,28.172,15.435,28.172z"></path><path d="M12.818,16.564c0,1.443,1.174,2.617,2.616,2.617c1.229,0,2.254-0.854,2.534-1.996h3.691c0.343,0,0.62-0.279,0.62-0.621  s-0.277-0.619-0.62-0.619h-3.691c-0.231-0.943-0.971-1.684-1.914-1.914V8.428c0-0.342-0.277-0.619-0.62-0.619  c-0.342,0-0.62,0.277-0.62,0.619v5.604C13.672,14.311,12.818,15.336,12.818,16.564z M16.812,16.564c0,0.76-0.618,1.377-1.377,1.377  s-1.376-0.617-1.376-1.377s0.617-1.377,1.376-1.377S16.812,15.805,16.812,16.564z"></path><rect x="14.814" y="2.588" width="1.24" height="3.5"></rect><rect x="17.979" y="3.005" transform="matrix(0.9661 0.2583 -0.2583 0.9661 1.8589 -4.6421)" width="1.24" height="3.5"></rect><rect x="20.928" y="4.226" transform="matrix(0.8657 0.5005 -0.5005 0.8657 5.8852 -9.9835)" width="1.241" height="3.5"></rect><rect x="22.331" y="7.3" transform="matrix(-0.7071 0.7071 -0.7071 -0.7071 46.7092 -3.5077)" width="3.5" height="1.24"></rect><rect x="24.274" y="9.832" transform="matrix(-0.8663 0.4996 -0.4996 -0.8663 53.7894 6.5061)" width="3.499" height="1.24"></rect><rect x="25.496" y="12.782" transform="matrix(-0.9659 0.259 -0.259 -0.9659 57.0324 19.2894)" width="3.499" height="1.239"></rect><rect x="25.913" y="15.945" width="3.499" height="1.24"></rect></svg>