<svg height='300px' width='300px'  fill="#ec2a39" xmlns="http://www.w3.org/2000/svg" xmlns:xlink="http://www.w3.org/1999/xlink" version="1.1" x="0px" y="0px" viewBox="0 0 66 66" style="enable-background:new 0 0 66 66;" xml:space="preserve"><style type="text/css">
	.st0{fill:#ec2a39;}
</style><g><path class="st0" d="M65.5,58.5l-1.9-6.6c-0.6-2.1-2.7-3.3-4.8-2.7L58,49.4l-0.3-1.2l-1.4,0.4l0.3,1.2L55.7,50   c-2.1,0.6-3.3,2.8-2.7,4.8l1.9,6.6c0.8,2.9,3.9,4.7,6.9,3.8C64.6,64.5,66.4,61.4,65.5,58.5z M61.3,63.9c-2.2,0.6-4.4-0.7-5-2.8   l-1.9-6.6c-0.4-1.3,0.4-2.6,1.7-3l0.9-0.2l0.3,1.2c-1,0.6-1.4,1.8-1.1,2.9c0.4,1.4,1.8,2.2,3.2,1.8c1.4-0.4,2.2-1.8,1.8-3.2   c-0.3-1-1.2-1.9-2.4-1.9l-0.3-1.2l0.9-0.2c1.3-0.4,2.6,0.4,3,1.7l1.9,6.6C64.7,61,63.4,63.3,61.3,63.9z M59.7,54.3   c0.2,0.6-0.2,1.2-0.8,1.4c-0.6,0.2-1.2-0.2-1.4-0.8c-0.2-0.6,0.2-1.2,0.8-1.4C58.9,53.4,59.6,53.7,59.7,54.3z"></path><path class="st0" d="M61.5,4.2H4.2v35.6h57.3V4.2z M60,38.3H5.7V5.7H60V38.3z"></path><polygon class="st0" points="18.3,30.2 10,22 18.3,13.9 17.2,12.8 7.9,22 17.2,31.2  "></polygon><polygon class="st0" points="48.6,31.2 57.9,22 48.6,12.8 47.5,13.9 55.7,22 47.5,30.2  "></polygon><rect x="38.2" y="25.9" class="st0" width="8.9" height="1.5"></rect><rect x="30.7" y="25.9" class="st0" width="5.2" height="1.5"></rect><rect x="24.2" y="25.9" class="st0" width="4.3" height="1.5"></rect><rect x="18.6" y="25.9" class="st0" width="3" height="1.5"></rect><rect x="45.2" y="21.3" class="st0" width="1.9" height="1.5"></rect><rect x="34.2" y="21.3" class="st0" width="8.7" height="1.5"></rect><rect x="26" y="21.3" class="st0" width="6" height="1.5"></rect><rect x="18.6" y="21.3" class="st0" width="4.8" height="1.5"></rect><rect x="40" y="16.6" class="st0" width="7.1" height="1.5"></rect><rect x="28.9" y="16.6" class="st0" width="8.7" height="1.5"></rect><rect x="22.5" y="16.6" class="st0" width="4.3" height="1.5"></rect><rect x="18.6" y="16.6" class="st0" width="1.3" height="1.5"></rect><rect x="3.4" y="55.5" class="st0" width="1.9" height="1.5"></rect><rect x="7.9" y="55.5" class="st0" width="1.9" height="1.5"></rect><rect x="12.5" y="55.5" class="st0" width="1.9" height="1.5"></rect><rect x="17" y="55.5" class="st0" width="1.9" height="1.5"></rect><rect x="21.6" y="55.5" class="st0" width="1.9" height="1.5"></rect><rect x="26.1" y="55.5" class="st0" width="1.9" height="1.5"></rect><rect x="30.7" y="55.5" class="st0" width="1.9" height="1.5"></rect><rect x="35.2" y="55.5" class="st0" width="1.9" height="1.5"></rect><rect x="39.8" y="55.5" class="st0" width="1.9" height="1.5"></rect><rect x="44.3" y="55.5" class="st0" width="1.9" height="1.5"></rect><rect x="3.4" y="58.7" class="st0" width="1.9" height="1.5"></rect><rect x="7.9" y="58.7" class="st0" width="1.9" height="1.5"></rect><rect x="12.5" y="58.7" class="st0" width="1.9" height="1.5"></rect><rect x="17" y="58.7" class="st0" width="1.9" height="1.5"></rect><rect x="21.6" y="58.7" class="st0" width="1.9" height="1.5"></rect><rect x="26.1" y="58.7" class="st0" width="1.9" height="1.5"></rect><rect x="30.7" y="58.7" class="st0" width="1.9" height="1.5"></rect><rect x="35.2" y="58.7" class="st0" width="1.9" height="1.5"></rect><rect x="39.8" y="58.7" class="st0" width="1.9" height="1.5"></rect><rect x="44.3" y="58.7" class="st0" width="1.9" height="1.5"></rect><rect x="3.4" y="61.8" class="st0" width="1.9" height="1.5"></rect><rect x="7.9" y="61.8" class="st0" width="1.9" height="1.5"></rect><rect x="12.5" y="61.8" class="st0" width="11" height="1.5"></rect><rect x="26.1" y="61.8" class="st0" width="1.9" height="1.5"></rect><rect x="30.7" y="61.8" class="st0" width="1.9" height="1.5"></rect><rect x="35.2" y="61.8" class="st0" width="1.9" height="1.5"></rect><rect x="39.8" y="61.8" class="st0" width="1.9" height="1.5"></rect><rect x="44.3" y="61.8" class="st0" width="1.9" height="1.5"></rect><path class="st0" d="M20.7,49.3c-0.3,0.1-0.5,0.5-0.4,0.8c0.1,0.3,0.4,0.6,0.7,0.6h23.7c0.4,0,0.7-0.2,0.7-0.6   c0.1-0.3-0.1-0.7-0.4-0.8c-3-1.4-4.3-4.1-4.9-5.5h25.3V0.3H0.3v43.6h25.3C25.1,45.2,23.7,47.9,20.7,49.3z M42.2,49.2H23.6   c2.3-1.9,3.2-4.3,3.6-5.4h11.4C38.9,44.9,39.9,47.4,42.2,49.2z M1.8,1.8H64v40.6c-67.5,0,10.7,0-62.3,0V1.8z"></path><path class="st0" d="M18.5,49.2H6.9v-3H17v-1.5H5.4v6H17v2.3H0.4v12.7h48.9V53.1H18.5V49.2z M47.7,64.3H1.9v-9.7   h45.9V64.3z"></path></g></svg>