<svg height='300px' width='300px'  fill="#ec2a39" xmlns="http://www.w3.org/2000/svg" xmlns:xlink="http://www.w3.org/1999/xlink" version="1.1" x="0px" y="0px" viewBox="0 0 100 100" enable-background="new 0 0 100 100" xml:space="preserve"><g display="none"><rect x="-1140.877" y="-277.172" display="inline" fill="#ec2a39" width="1370.931" height="877.172"></rect></g><g><g><path d="M23.602,37.306c-6.514,0-11.813,5.299-11.813,11.813s5.299,11.813,11.813,11.813s11.813-5.299,11.813-11.813    S30.115,37.306,23.602,37.306z M23.602,57.931c-4.859,0-8.813-3.953-8.813-8.813s3.953-8.813,8.813-8.813s8.813,3.953,8.813,8.813    S28.461,57.931,23.602,57.931z"></path><path d="M39.691,58.359c-0.189,0.519-0.06,1.099,0.328,1.491c0.272,0.275,0.639,0.423,1.013,0.423    c0.159,0,0.319-0.026,0.475-0.081l14.402-5.083c3.67,1.581,7.552,2.382,11.552,2.382c15.359,0,27.855-11.747,27.855-26.185    c0-14.439-12.496-26.186-27.855-26.186S39.605,16.866,39.605,31.305c0,5.177,1.608,10.164,4.661,14.473L39.691,58.359z     M42.458,31.305c0-12.866,11.216-23.333,25.001-23.333s25.002,10.467,25.002,23.333c0,12.866-11.216,23.333-25.002,23.333    c-3.805,0-7.494-0.804-10.964-2.389c-0.432-0.199-0.921-0.151-1.312,0.091l-11.78,4.157l3.804-10.458    c0.164-0.454,0.089-0.96-0.202-1.346C44.03,40.742,42.458,36.113,42.458,31.305z"></path><circle cx="54.056" cy="31.275" r="3.444"></circle><circle cx="67.46" cy="31.275" r="3.444"></circle><circle cx="80.864" cy="31.275" r="3.444"></circle><path d="M66.243,71.901H39.151c-1.713-4.875-6.304-8.19-11.551-8.19h-7.998c-6.752,0-12.245,5.488-12.245,12.234v15.936H4.686v3    h87.759v-3H56.772L66.243,71.901z M10.357,91.881V75.945c0-5.092,4.147-9.234,9.245-9.234h7.998c3.593,0,6.774,2.062,8.302,5.19    h-1.126l-4.581,12.68H18.521v1.5v0v1.5h7.371h6.409l4.581-12.68h24.619l-8.049,16.98H10.357z"></path></g></g></svg>