<svg height='300px' width='300px'  fill="#ec2a39" xmlns="http://www.w3.org/2000/svg" xmlns:xlink="http://www.w3.org/1999/xlink" version="1.1" x="0px" y="0px" viewBox="0 0 100 100" style="enable-background:new 0 0 100 100;" xml:space="preserve"><g><path d="M94.94,34.42c0-8.43-6.3-15.38-14.32-16.13c-0.71-8.26-7.48-14.77-15.7-14.77c-6.32,0-11.77,3.86-14.28,9.39   c-2.58-5.54-8.18-9.39-14.68-9.39c-8.45,0-15.41,6.5-16.14,14.76c-8.26,0.73-14.76,7.69-14.76,16.14c0,3.76,1.29,7.34,3.65,10.23   c-2.36,2.89-3.65,6.47-3.65,10.23c0,6.45,3.79,12.19,9.58,14.78c-0.77,1.92-1.18,3.99-1.18,6.06c0,6.73,4.25,12.83,10.58,15.18   c2.05,0.76,4.21,1.11,6.32,1c3.04,2.96,7.02,4.58,11.27,4.58c3.25,0,6.34-0.96,9.01-2.76c2.6,1.81,5.61,2.76,8.77,2.76   c4.14,0,8.01-1.62,10.96-4.58c2.04,0.1,4.14-0.25,6.13-1.01c6.15-2.35,10.28-8.45,10.28-15.17c0-2.08-0.39-4.15-1.15-6.07   c5.62-2.59,9.3-8.33,9.3-14.77c0-3.76-1.25-7.34-3.55-10.23C93.69,41.76,94.94,38.18,94.94,34.42z M32.03,89.32   c-0.29-0.3-0.68-0.47-1.09-0.47c-0.04,0-0.09,0-0.13,0.01c-1.89,0.17-3.87-0.08-5.74-0.77c-5.16-1.91-8.62-6.88-8.62-12.36   c0-2.18,0.52-4.25,1.54-6.18c0.21-0.39,0.23-0.85,0.07-1.26s-0.5-0.73-0.92-0.86c-5.43-1.78-9.08-6.82-9.08-12.53   c0-0.83,0.08-1.64,0.23-2.44h22.66c0.68,2.89,3.28,5.05,6.37,5.05c3.61,0,6.55-2.94,6.55-6.55s-2.94-6.55-6.55-6.55   c-3.1,0-5.69,2.16-6.37,5.05H9.25c0.62-1.37,1.47-2.64,2.54-3.75c0.56-0.58,0.56-1.51,0-2.09c-2.41-2.48-3.73-5.74-3.73-9.18   c0-7.28,5.92-13.2,13.2-13.2c0.83,0,1.5-0.67,1.5-1.5c0-7.28,5.92-13.2,13.2-13.2s13.2,5.92,13.2,13.2v17.25h-7.61v-3.42   c0-0.83-0.67-1.5-1.5-1.5H26.33c-0.04,0-0.07,0.01-0.1,0.01c-0.8-2.72-3.31-4.72-6.29-4.72c-3.61,0-6.55,2.94-6.55,6.55   s2.94,6.55,6.55,6.55c3.22,0,5.9-2.33,6.44-5.4h12.15v3.42c0,0.83,0.67,1.5,1.5,1.5h9.11v23.29H34.33c-0.83,0-1.5,0.67-1.5,1.5   v5.45c-2.89,0.68-5.05,3.28-5.05,6.37c0,3.61,2.94,6.55,6.55,6.55s6.55-2.94,6.55-6.55c0-3.1-2.16-5.69-5.05-6.37v-3.95h13.33   v24.85c-2.22,1.55-4.81,2.37-7.53,2.37C37.97,93.48,34.56,92,32.03,89.32z M33.77,50.94c0-1.96,1.59-3.55,3.55-3.55   c1.96,0,3.55,1.59,3.55,3.55c0,1.96-1.59,3.55-3.55,3.55C35.36,54.49,33.77,52.9,33.77,50.94z M23.5,33.89   c0,1.96-1.59,3.55-3.55,3.55s-3.55-1.59-3.55-3.55c0-1.96,1.59-3.55,3.55-3.55S23.5,31.93,23.5,33.89z M34.33,73.02   c1.96,0,3.55,1.59,3.55,3.55c0,1.96-1.59,3.55-3.55,3.55c-1.96,0-3.55-1.59-3.55-3.55C30.78,74.62,32.37,73.02,34.33,73.02z    M91.94,54.88c0,5.25-2.98,9.91-7.53,12.02c-2.36-4.88-6.16-7.79-11.32-8.65c-0.82-0.14-1.59,0.42-1.73,1.23   c-0.14,0.82,0.42,1.59,1.23,1.73c4.59,0.77,7.75,3.44,9.64,8.18c0.01,0.02,0.02,0.03,0.03,0.05c0.01,0.03,0.02,0.06,0.03,0.08   c0.99,1.93,1.5,4.01,1.5,6.19c0,5.49-3.36,10.46-8.35,12.37c-1.76,0.67-3.61,0.91-5.4,0.77c-5.45-1.61-6.52-4-7.56-6.3   c-0.34-0.76-1.23-1.09-1.98-0.75c-0.76,0.34-1.09,1.23-0.75,1.98c1.26,2.82,2.73,5.33,7.16,7.15c-2.17,1.65-4.76,2.54-7.5,2.54   c-2.62,0-5.12-0.81-7.26-2.36v-71.4c0-7.28,5.72-13.2,12.76-13.2s12.76,5.92,12.76,13.2c0,6.28-1.93,10.01-5.9,11.38   c-0.78,0.27-1.2,1.12-0.93,1.91c0.21,0.62,0.8,1.01,1.42,1.01c0.16,0,0.33-0.03,0.49-0.08c4.88-1.69,7.52-5.93,7.87-12.62   c6.35,0.75,11.31,6.34,11.31,13.11c0,2.95-0.95,5.76-2.68,8.07c-3.51-2.96-7.53-4.09-12.52-3.51c-0.82,0.1-1.41,0.84-1.32,1.66   c0.1,0.82,0.85,1.41,1.66,1.32c4.64-0.54,8.11,0.61,11.24,3.73C90.66,48.17,91.94,51.43,91.94,54.88z"></path><path d="M69.79,48.5c-5.08,0-10.36,4.64-10.86,9.54c-0.08,0.82,0.52,1.56,1.34,1.64c0.05,0.01,0.1,0.01,0.15,0.01   c0.76,0,1.41-0.58,1.49-1.35c0.34-3.33,4.39-6.85,7.87-6.85c0.83,0,1.5-0.67,1.5-1.5S70.61,48.5,69.79,48.5z"></path><path d="M59.32,71.82c-0.57,0.6-0.53,1.55,0.07,2.12c0.6,0.56,1.55,0.53,2.12-0.07c1.51-1.62,5.74-1.33,7.25,0.07   c0.29,0.27,0.66,0.4,1.02,0.4c0.4,0,0.8-0.16,1.1-0.48c0.56-0.61,0.53-1.56-0.08-2.12C68.19,69.32,62.04,68.91,59.32,71.82z"></path><path d="M62.38,38.21c0.37,0,0.74-0.14,1.03-0.41c0.6-0.57,0.63-1.52,0.06-2.12c-1.49-1.58-1.12-6.31,0.82-10.32   c0.36-0.75,0.05-1.64-0.7-2c-0.75-0.36-1.64-0.05-2,0.7c-2.22,4.6-3.04,10.77-0.3,13.68C61.58,38.05,61.98,38.21,62.38,38.21z"></path></g></svg>